<?xml version="1.0" encoding="utf-8"?>
<!-- Generator: Adobe Illustrator 24.0.1, SVG Export Plug-In . SVG Version: 6.00 Build 0)  -->
<svg version="1.1" id="Layer_1" xmlns="http://www.w3.org/2000/svg" xmlns:xlink="http://www.w3.org/1999/xlink" x="0px" y="0px"
	 viewBox="0 0 198.72 199.33" style="enable-background:new 0 0 198.72 199.33;" xml:space="preserve">
<style type="text/css">
	.st0{fill:#00B7A1;}
	.st1{fill:#808184;}
</style>
<g>
	<g id="XMLID_1_">
		<g id="XMLID_4_">
			<path id="XMLID_5_" class="st0" d="M104.34,140.25v-17.71c16.03-1.62,30.47-10.96,38.46-25.19c1.35-2.4,0.49-5.43-1.9-6.78
				c-2.4-1.35-5.43-0.49-6.78,1.9c-7.05,12.56-20.36,20.36-34.75,20.36c-14.39,0-27.7-7.8-34.75-20.36c-1.35-2.4-4.38-3.25-6.78-1.9
				c-1.63,0.91-2.54,2.6-2.54,4.35c0,0.82,0.21,1.66,0.64,2.43c7.99,14.23,22.42,23.58,38.46,25.19v17.71H104.34z"/>
		</g>
		<circle id="XMLID_3_" class="st0" cx="99.36" cy="79.71" r="20.63"/>
	</g>
</g>
</svg>
